<?xml version="1.0" encoding="UTF-8"?><svg id="a" xmlns="http://www.w3.org/2000/svg" xmlns:xlink="http://www.w3.org/1999/xlink" viewBox="0 0 579.17 612"><defs><style>.d{stroke-width:1.97px;}.d,.e,.f,.g,.h,.i{fill:none;stroke:#fff;stroke-linecap:round;stroke-linejoin:round;}.e{stroke-width:2.2px;}.f{stroke-width:2.35px;}.g{stroke-width:1.97px;}.h{stroke-width:2.16px;}.j{fill:#6d63fd;filter:url(#b);}.k{fill:#1d1d1b;}.i{stroke-width:2.63px;}</style><filter id="b" filterUnits="userSpaceOnUse"><feOffset dx="0" dy="11.68"/><feGaussianBlur result="c" stdDeviation="1.95"/><feFlood flood-color="#000" flood-opacity=".36"/><feComposite in2="c" operator="in"/><feComposite in="SourceGraphic"/></filter></defs><path class="k" d="M514.33,431.72c-.99-2.8-3.54-4.61-6.51-4.62-8.65-.03-17.44-1.5-26.04-4.58-21.98-7.85-38.21-24.52-46.29-44.59-1.15-2.87-3.94-4.83-7-4.4-7.75,1.09-15.87,.39-23.76-2.42-7.45-2.66-13.85-6.91-19.01-12.22-2.96-3.05-7.93-2.94-10.36,.55-2.71,3.88-5.76,7.62-9.21,11.19-16.56,17.15-36.52,25.72-59.9,25.72-22.99,0-42.76-8.56-59.32-25.7-16.56-17.14-24.84-37.79-24.85-61.94,0-24.55,8.17-45.29,24.54-62.24,16.36-16.95,36.23-25.43,59.61-25.43,23.77,0,43.83,8.47,60.2,25.41,8.92,9.24,15.35,19.64,19.39,31.14,1.43,4.09,6.29,5.49,10,3.26,8.17-4.91,17.67-7.48,27.41-7.18,3.46,.11,6.34-2.52,6.77-5.95,.41-3.26,1.13-6.53,2.28-9.75,8.62-24.14,33.81-37.57,58.2-32.11,3.27,.73,6.51-.73,7.96-3.74,14.12-29.33,42.98-47.79,74.23-49.55,5.15-.29,8.17-5.83,5.54-10.26-2.74-4.63-5.64-9.16-8.72-13.56C502.61,53.15,416.8,5.36,312.03,5.38c-88.05,.02-162.07,29.15-222.06,87.41C18.31,162.37-10.54,251.26,3.41,359.47c5.6,43.4,22.41,84.89,48.73,119.85,65.45,86.91,148.53,131.12,249.24,132.65,77.62,1.18,153.8-26.16,211.13-78.5,16.2-14.79,30.34-30.44,42.6-46.87,2.44-3.28,1.38-8.03-2.23-9.96-18.43-9.86-31.9-26.08-38.56-44.91Z"/><g><path class="j" d="M214.12,201.75c.94-4.6,4.18-7.74,12.38-7.3,6.52,.35,12.92-.81,19.07,2.17,5.27,2.56,10.78,5.79,15.31,9.51,3.78,3.11,6.85,7.73,11.9,8.93,8.21,1.95,19.54-2.51,22.88-9.77,6.81-14.8,8.74-33.5,25.6-40.98,11.95-5.3,19.59-16.8,31.88-21.41,8.58-3.22,15.5,.6,20.7,7.67,7.76,10.55,14.29,21.9,22.62,32.09,4.95,6.06,11.07,13.36,18.96,15.64,1.34,.39,2.88,.58,3.99-.16,.73-.49,1.15-1.32,1.46-2.14,2.39-6.45-.27-13.78-1.84-20.27-2.01-8.28-4.76-16.4-7.61-24.47-2.36-6.66-7.32-17.21-2.15-23.47,.47-.56,.81-1.22,1.31-1.76,1.37-1.5,4.36-1.41,6.3-1.65,2.43-.3,4.9-.23,7.34-.4,4.52-.32,9.17,.68,12.55,3.96,4.63,4.51,5.73,12.11,11.02,16.3,9.47,7.49,8.46-13.96,8.59-17.86,.01-.4,.06-.86,.4-1.07,.43-.27,1.01,.05,1.42,.39,3.47,2.92,4.74,8.43,6.6,12.31,3.32,6.94,7.49,13.34,11.47,19.94,3.01,4.98,5.46,10.35,9.21,14.89,3.11,3.76,7.63,7.61,12.78,7.64,2.02,.01,4.07-.61,5.49-1.96,4.48-4.25,3.06-10.21,1.37-15.51-5.39-16.91-10.04-35.68-19.3-51.18-2.56-4.28-5.89-8.15-7.94-12.69-1.56-3.44-2.12-6.99,2-8.59,2.64-1.02,5.04,.03,7.7,.44,4.02,.62,7.98-1,10.57-3.86,2.17-2.4,3.62-5.91,2.78-9.2-.95-3.73-1.99-7.51-4.83-10.05-6.26-5.62-13.4-11.04-20.26-16.41-9.5-7.44-25.91-18.27-36.66-23.74-2.7-1.37-5.4-2.75-8.08-4.18-25.52-13.55-54.1-20.49-82.53-22.71-46.63-3.63-93.13,4.87-136.75,18.37-38.53,11.27-75.52,29.64-106.65,53.92-26.69,20.82-49.22,46.56-65.37,76.05-5.94,10.84-12.32,22.19-16.33,33.9-3.7,10.82-13.38,28.1-11.03,40.74,1.4,7.54,10.76,12.53,20.57,16.02,5.78,2.06,10.81-.12,14.66-4.19,5.39-5.69,9.11-12.56,10.52-20.3,.03-.16,8.99,4.79,9.51,5.15,7.28,5.08,12.92,11.99,15.98,20.15,8.74,23.37,12.93,48.37,21.68,71.95,3.38,9.12,12.2,39.88,26.89,35.15,4.87-1.57,8.07-5.99,10.15-10.53,7.61-16.56-2.92-32.13-8.32-48.31-4.75-14.25-5.38-30.1-1-44.13,3.24-10.36,16.23-34.88,30.67-26.89,8.68,4.8,14.16,12.62,18.18,21.25,3.74,8.04,5.23,17.87,14.65,21.78,5.35,2.22,11.53,2.96,15.67-1.49,2.47-2.65,3.63-6.23,4.38-9.77,2.02-9.55,.85-19.18-.58-28.86-.89-6.05-3.02-13.58-1.91-19.05Z"/><path class="i" d="M100.83,229.02s-.46-29.64,9.27-63.73"/><path class="h" d="M150.62,126.48s-16.73-13.12-42.44-21.01"/><path class="f" d="M196.95,59.86s22.44,11.51,43.08,32.86"/><path class="e" d="M324.5,91.97s-3.42,20.39-17.46,42.22"/><path class="g" d="M370.45,103.53s-.46-16.58,9.27-35.65"/><path class="g" d="M296.8,57.23s9.77-13.96,29.5-24.75"/><path class="g" d="M244.59,129.63s15.61,8.4,28.15,26.04"/><path class="i" d="M389.16,26.48s26.77,16.66,51.67,43.52"/><path class="d" d="M191.69,181.59s1.68-24.38,10.57-51.95"/></g></svg>