<?xml version="1.0" encoding="UTF-8"?><svg id="a" xmlns="http://www.w3.org/2000/svg" xmlns:xlink="http://www.w3.org/1999/xlink" viewBox="0 0 792 168.83"><defs><style>.d{stroke-width:.54px;}.d,.e,.f,.g,.h,.i{fill:none;stroke:#fff;stroke-linecap:round;stroke-linejoin:round;}.e{stroke-width:.59px;}.f{stroke-width:.6px;}.g{stroke-width:.54px;}.h{stroke-width:.64px;}.j{fill:#6d63fd;filter:url(#b);}.k{fill:#1d1d1b;}.i{stroke-width:.72px;}</style><filter id="b" filterUnits="userSpaceOnUse"><feOffset dx="0" dy="3.19"/><feGaussianBlur result="c" stdDeviation=".53"/><feFlood flood-color="#000" flood-opacity=".36"/><feComposite in2="c" operator="in"/><feComposite in="SourceGraphic"/></filter></defs><path class="k" d="M266.25,6.14V58c0,3.32-3.17,5.81-6.36,4.88-1.74-.5-3.4-.76-4.98-.76-10.86,0-16.29,8.3-16.29,24.91v70.47c0,2.8-2.27,5.06-5.06,5.06h-49.6c-2.8,0-5.06-2.27-5.06-5.06V75.54c0-23,6.28-41.34,18.84-55.02C210.3,6.84,227.07,0,248.04,0c3.72,0,8.32,.37,13.79,1.11,2.51,.34,4.41,2.49,4.41,5.03Z"/><path class="k" d="M361.86,2.32c28.63,0,52.08,13.06,70.35,39.19,5.15,7.36,8.7,15.94,10.22,24.8,5.68,32.93-3.07,59.84-26.25,80.73-13.95,12.57-32.35,20.08-51.11,20.94-28.51,1.3-52.1-9.29-70.78-31.78-9.79-11.79-15.96-26.65-17.3-41.92-2.4-27.42,5.66-50.11,24.18-68.09,16.4-15.92,36.62-23.88,60.69-23.88Zm-1.6,58.93c-6.39,0-11.82,2.32-16.29,6.95-4.47,4.63-6.71,10.3-6.71,17.01s2.26,12.24,6.79,16.93c4.52,4.68,9.93,7.03,16.21,7.03s11.84-2.34,16.37-7.03,6.79-10.33,6.79-16.93-2.24-12.38-6.71-17.01-9.95-6.95-16.45-6.95Z"/><path class="k" d="M596.83,12.91l-37.58,74.31c-2.59,5.11,1.13,11.16,6.86,11.16h36.03c4.25,0,7.69,3.44,7.69,7.69v47.23c0,4.25-3.44,7.69-7.69,7.69h-133.34c-5.72,0-9.43-6.02-6.87-11.13l37.4-74.68c2.56-5.11-1.16-11.13-6.87-11.13h-30.33c-4.25,0-7.69-3.44-7.69-7.69V9.44c0-4.25,3.44-7.69,7.69-7.69h127.85c5.73,0,9.45,6.04,6.86,11.16Z"/><path class="k" d="M679.8,160.98h49.14c4.33,0,7.85-3.51,7.85-7.85v-52.15c0-1.49,.43-2.95,1.23-4.21l52.75-82.95c3.32-5.23-.43-12.06-6.62-12.06h-46.05c-2.61,0-5.05,1.3-6.51,3.47l-21.1,31.38c-3.17,4.72-10.15,4.6-13.16-.21l-19.38-30.95c-1.44-2.29-3.95-3.68-6.65-3.68h-47.1c-6.2,0-9.96,6.86-6.61,12.08l53.14,82.92c.81,1.26,1.24,2.73,1.24,4.23v52.14c0,4.33,3.51,7.85,7.85,7.85Z"/><g><path class="k" d="M140.55,119.56c-.27-.77-.97-1.26-1.78-1.26-2.36,0-4.76-.41-7.12-1.25-6.01-2.14-10.44-6.7-12.65-12.18-.32-.78-1.08-1.32-1.91-1.2-2.12,.3-4.34,.11-6.49-.66-2.04-.73-3.79-1.89-5.2-3.34-.81-.83-2.17-.8-2.83,.15-.74,1.06-1.58,2.08-2.52,3.06-4.52,4.69-9.98,7.03-16.37,7.03-6.28,0-11.69-2.34-16.21-7.02-4.53-4.68-6.79-10.33-6.79-16.93,0-6.71,2.23-12.38,6.7-17.01,4.47-4.63,9.9-6.95,16.29-6.95,6.49,0,11.98,2.31,16.45,6.94,2.44,2.52,4.2,5.37,5.3,8.51,.39,1.12,1.72,1.5,2.73,.89,2.23-1.34,4.83-2.05,7.49-1.96,.95,.03,1.73-.69,1.85-1.63,.11-.89,.31-1.78,.62-2.67,2.36-6.6,9.24-10.27,15.9-8.77,.89,.2,1.78-.2,2.18-1.02,3.86-8.02,11.75-13.06,20.28-13.54,1.41-.08,2.23-1.59,1.51-2.8s-1.54-2.5-2.38-3.71C137.35,16.11,113.9,3.05,85.27,3.06c-24.06,0-44.29,7.97-60.68,23.89C5,45.96-2.88,70.25,.93,99.82c1.53,11.86,6.12,23.2,13.32,32.75,17.89,23.75,40.59,35.83,68.11,36.25,21.21,.32,42.03-7.15,57.69-21.45,4.43-4.04,8.29-8.32,11.64-12.81,.67-.9,.38-2.19-.61-2.72-5.04-2.69-8.72-7.13-10.54-12.27Z"/><g><path class="j" d="M58.51,56.72c.26-1.26,1.14-2.11,3.38-2,1.78,.09,3.53-.22,5.21,.59,1.44,.7,2.95,1.58,4.18,2.6,1.03,.85,1.87,2.11,3.25,2.44,2.24,.53,5.34-.69,6.25-2.67,1.86-4.04,2.39-9.15,7-11.2,3.26-1.45,5.35-4.59,8.71-5.85,2.34-.88,4.24,.16,5.66,2.09,2.12,2.88,3.91,5.98,6.18,8.77,1.35,1.66,3.03,3.65,5.18,4.27,.37,.11,.79,.16,1.09-.04,.2-.13,.31-.36,.4-.58,.65-1.76-.07-3.77-.5-5.54-.55-2.26-1.3-4.48-2.08-6.69-.64-1.82-2-4.7-.59-6.41,.13-.15,.22-.33,.36-.48,.37-.41,1.19-.39,1.72-.45,.66-.08,1.34-.06,2.01-.11,1.24-.09,2.51,.19,3.43,1.08,1.27,1.23,1.57,3.31,3.01,4.45,2.59,2.05,2.31-3.81,2.35-4.88,0-.11,.02-.23,.11-.29,.12-.07,.28,.01,.39,.11,.95,.8,1.3,2.3,1.8,3.36,.91,1.9,2.05,3.65,3.14,5.45,.82,1.36,1.49,2.83,2.52,4.07,.85,1.03,2.09,2.08,3.49,2.09,.55,0,1.11-.17,1.5-.53,1.23-1.16,.84-2.79,.37-4.24-1.47-4.62-2.74-9.75-5.27-13.98-.7-1.17-1.61-2.23-2.17-3.47-.43-.94-.58-1.91,.55-2.35,.72-.28,1.38,0,2.1,.12,1.1,.17,2.18-.27,2.89-1.05,.59-.66,.99-1.61,.76-2.51-.26-1.02-.54-2.05-1.32-2.75-1.71-1.53-3.66-3.02-5.54-4.49-2.6-2.03-7.08-4.99-10.02-6.49-.74-.38-1.48-.75-2.21-1.14-6.97-3.7-14.78-5.6-22.55-6.2-12.74-.99-25.45,1.33-37.37,5.02-10.53,3.08-20.64,8.1-29.14,14.73-7.29,5.69-13.45,12.72-17.86,20.78-1.62,2.96-3.37,6.06-4.46,9.26-1.01,2.96-3.66,7.68-3.01,11.13,.38,2.06,2.94,3.42,5.62,4.38,1.58,.56,2.96-.03,4.01-1.14,1.47-1.56,2.49-3.43,2.87-5.55,0-.04,2.46,1.31,2.6,1.41,1.99,1.39,3.53,3.28,4.37,5.51,2.39,6.39,3.53,13.22,5.92,19.66,.92,2.49,3.33,10.9,7.35,9.6,1.33-.43,2.2-1.64,2.77-2.88,2.08-4.52-.8-8.78-2.27-13.2-1.3-3.89-1.47-8.22-.27-12.06,.89-2.83,4.44-9.53,8.38-7.35,2.37,1.31,3.87,3.45,4.97,5.81,1.02,2.2,1.43,4.88,4,5.95,1.46,.61,3.15,.81,4.28-.41,.67-.72,.99-1.7,1.2-2.67,.55-2.61,.23-5.24-.16-7.89-.24-1.65-.83-3.71-.52-5.21Z"/><path class="i" d="M27.55,64.17s-.13-8.1,2.53-17.42"/><path class="e" d="M41.16,36.15s-4.57-3.59-11.6-5.74"/><path class="h" d="M53.82,17.95s6.13,3.14,11.77,8.98"/><path class="f" d="M88.67,26.72s-.94,5.57-4.77,11.54"/><path class="d" d="M101.23,29.88s-.13-4.53,2.53-9.74"/><path class="d" d="M81.11,17.23s2.67-3.81,8.06-6.76"/><path class="d" d="M66.84,37.01s4.27,2.3,7.69,7.12"/><path class="i" d="M106.35,8.82s7.31,4.55,14.12,11.89"/><path class="g" d="M52.38,51.21s.46-6.66,2.89-14.2"/></g></g></svg>